<svg xmlns="http://www.w3.org/2000/svg" height="48" width="246.2"><path d="M241.223 8.783h1.376l.617 2.134c.19.616.475 1.849.475 1.849h.046s.286-1.233.475-1.85l.616-2.133h1.376v4.883h-.855V11.91c0-.9.05-2.229.05-2.229h-.05s-.285 1.091-.616 2.136l-.569 1.848h-.9l-.57-1.848c-.331-1.045-.615-2.136-.615-2.136h-.048s.048 1.328.048 2.23v1.754h-.856zm-4.883 0h3.983v.806h-1.518v4.077h-.948V9.589h-1.517zM14.464 5.362c1.535 0 3.073.59 4.244 1.763l6.976 6.977 6.967-6.968a5.98 5.98 0 014.25-1.77c1.53 0 3.06.588 4.23 1.764l8.472 8.47c2.34 2.341 2.346 6.138.005 8.477L25.684 48 1.76 24.075a5.993 5.993 0 01-.01-8.476l8.479-8.475a5.949 5.949 0 014.235-1.762m142.76 33.445l.512 8.286c-.979.282-3.944.862-7.97.862-8.269 0-12.671-3.481-12.671-11.978 0-6.66.126-13.962.192-17.962H133c.074-1.807-.028-4.386 0-6.283 6.432-1.068 8.462-4.689 9.402-11.732h7.072c-.248 2.901-.467 7.11-.471 9.96h7.512v8.057h-7.63V32.51c0 5.62 1.135 7.15 4.998 7.15 1.2 0 2.619-.372 3.34-.853zm39.477-8.997c0-3.15.066-7.34.066-7.34 0-9.426-4.136-13.659-15.823-13.659-6.56 0-11.235 1.15-18.561 1.15.41 6.617.425 14.793.394 19.849.032 5.152-.17 14.372-.394 17.345h12.557c-.287-2.983-.539-11.56-.505-17.345 0-3.293.044-7.281.17-12.631a14.208 14.208 0 014.562-.75c4.397 0 5.813 2.063 5.813 7.731 0 0 .065 3.554.065 5.65 0 5.152-.169 14.372-.394 17.345h12.561c-.292-2.983-.544-11.56-.51-17.345zm-88.821-4.967c0-5.224 1.658-9.06 6.452-9.06 2.714 0 4.472 1.424 4.472 4.011 0 3.642-2.422 5.33-7.469 5.33-1.22 0-2.509-.018-3.455-.096zM73.298 40.697c-4.002 0-5.71-1.338-5.71-4.687 0-3.22 2.166-5.055 7.634-5.055.508 0 1.122-.02 1.562.028-.03 3.124-.098 6.766.079 9.295-.947.253-2.344.419-3.565.419zm44.618-.361c-6.473 0-9.969-3.378-9.969-8.708v-.254c1.152.058 3.447.087 4.795.087 11.558 0 17.494-3.62 17.494-11.422 0-6.737-4.89-11.208-15.523-11.208-12.877 0-18.032 5.75-19.194 16.04-1.884-.117-3.934-.165-6.736-.176 0-.555.01-1.122.01-1.698 0-10.437-4.325-14.214-15.835-14.214-5.624 0-10.594.838-13.62 2.069l.449 8.328c2.635-1.407 6.57-2.753 10.31-2.753 5.272 0 6.872 2.167 6.872 7.39l-.01.772c-.361-.01-1.288-.02-1.795-.02-13.122 0-19.195 3.974-19.195 11.335 0 7.586 3.779 12.047 14.528 12.047 5.672 0 11.267-.8 18.482-.8-.528-3.036-.548-7.41-.548-10.418 0-1.58.078-3.475.166-5.624 3.075.03 5.35.109 6.844.176C96.545 43.49 102.87 48 116.03 48c4.863 0 9.782-.83 12.36-2.031l-.45-8.327c-2.556 1.483-6.12 2.694-10.025 2.694zm100.928.36c-4.012 0-5.71-1.337-5.71-4.686 0-3.22 2.167-5.055 7.635-5.055.498 0 1.112-.02 1.552.028-.02 3.124-.098 6.766.087 9.295-.947.253-2.353.419-3.564.419zm15.133-3.963c0-3.367.351-8.152.351-13.736 0-10.437-4.315-14.214-15.825-14.214-5.632 0-10.592.838-13.619 2.069l.448 8.328c2.637-1.407 6.561-2.753 10.31-2.753 5.273 0 6.863 2.167 6.863 7.39v.772c-.37-.01-1.288-.02-1.794-.02-13.132 0-19.195 3.974-19.195 11.335 0 7.586 3.777 12.047 14.528 12.047 5.672 0 11.265-.8 18.47-.8-.518-3.036-.537-7.41-.537-10.418" fill="#692391"/></svg>