<?xml version="1.0" encoding="UTF-8"?>
<svg width="26px" height="26px" viewBox="0 0 26 26" version="1.1" xmlns="http://www.w3.org/2000/svg" xmlns:xlink="http://www.w3.org/1999/xlink">
    <!-- Generator: Sketch 58 (84663) - https://sketch.com -->
    <title>answer-machine-paper</title>
    <desc>Created with Sketch.</desc>
    <g id="Contact" stroke="none" stroke-width="1" fill="none" fill-rule="evenodd" stroke-linecap="round" stroke-linejoin="round">
        <g id="MMA_Contact" transform="translate(-938.000000, -924.000000)" stroke="#698AB5" stroke-width="3">
            <g id="customer-service" transform="translate(232.000000, 799.000000)">
                <g id="fax" transform="translate(707.000000, 124.000000)">
                    <g id="answer-machine-paper" transform="translate(0.000000, 2.000000)">
                        <rect id="Rectangle" x="0.75" y="3.75" width="6" height="19.5" rx="3"></rect>
                        <path d="M6.748,23.25 L19.6189677,23.25 C21.6232269,23.25 23.248,21.7847501 23.248,19.9772727 L23.248,11.5227273 C23.248,9.71524991 21.6232269,8.25 19.6189677,8.25 L6.75,8.25" id="Path"></path>
                        <path d="M6.75,8.25 L6.75,2.25 C6.75,1.42157288 7.53350167,0.75 8.49999997,0.75 L17.7754999,0.75 C18.2394723,0.750350104 18.6842927,0.908615025 19.0121665,1.19 L19.7378332,1.811 C20.0659736,2.09244347 20.2502101,2.47410629 20.25,2.872 L20.25,8.25" id="Path"></path>
                        <path d="M17.625,12.75 C17.4178932,12.75 17.25,12.9178932 17.25,13.125 C17.25,13.3321068 17.4178932,13.5 17.625,13.5 C17.8321068,13.5 18,13.3321068 18,13.125 C18,12.9178932 17.8321068,12.75 17.625,12.75" id="Path"></path>
                        <path d="M17.625,18 C17.4178932,18 17.25,18.1678932 17.25,18.375 C17.25,18.5821068 17.4178932,18.75 17.625,18.75 C17.8321068,18.75 18,18.5821068 18,18.375 C18,18.1678932 17.8321068,18 17.625,18" id="Path"></path>
                        <path d="M12.375,12.75 C12.1678932,12.75 12,12.9178932 12,13.125 C12,13.3321068 12.1678932,13.5 12.375,13.5 C12.5821068,13.5 12.75,13.3321068 12.75,13.125 C12.75,12.9178932 12.5821068,12.75 12.375,12.75" id="Path"></path>
                        <path d="M12.375,18 C12.1678932,18 12,18.1678932 12,18.375 C12,18.5821068 12.1678932,18.75 12.375,18.75 C12.5821068,18.75 12.75,18.5821068 12.75,18.375 C12.75,18.1678932 12.5821068,18 12.375,18" id="Path"></path>
                    </g>
                </g>
            </g>
        </g>
    </g>
</svg>