<?xml version="1.0" encoding="UTF-8"?>
<svg width="28px" height="28px" viewBox="0 0 28 28" version="1.1" xmlns="http://www.w3.org/2000/svg" xmlns:xlink="http://www.w3.org/1999/xlink">
    <!-- Generator: Sketch 58 (84663) - https://sketch.com -->
    <title>Path</title>
    <desc>Created with Sketch.</desc>
    <g id="Contact" stroke="none" stroke-width="1" fill="none" fill-rule="evenodd" stroke-linecap="round" stroke-linejoin="round">
        <g id="MMA_Contact" transform="translate(-230.000000, -923.000000)" stroke="#698AB5" stroke-width="2.99998199">
            <g id="customer-service" transform="translate(232.000000, 799.000000)">
                <g id="phone" transform="translate(0.000000, 124.000000)">
                    <path d="M8.82135822,8.98144324 C9.80549324,7.99551962 9.80549324,6.39887371 8.82135822,5.41295009 L6.14428338,2.73903486 C5.15889948,1.75365505 3.56132507,1.75365505 2.57594117,2.73903486 L1.10867726,4.20745179 C-0.164197793,5.47836148 -0.364544735,7.47050588 0.629771041,8.9694428 C4.95073064,15.4735598 10.526558,21.049623 17.0303998,25.3707654 C18.5296531,26.3636689 20.5205519,26.1643882 21.7932803,24.8940208 L23.2605442,23.4256038 C23.7339889,22.9525266 24,22.3106636 24,21.6413573 C24,20.972051 23.7339889,20.3301879 23.2605442,19.8571107 L20.5845603,17.1810136 C20.1115031,16.7075488 19.4696672,16.4415265 18.8003892,16.4415265 C18.1311112,16.4415265 17.4892753,16.7075488 17.0162181,17.1810136 L16.1238598,18.0734096 C13.1335454,15.6124431 10.3890662,12.867117 7.92899994,9.87602116 L8.82135822,8.98144324 Z" id="Path"></path>
                </g>
            </g>
        </g>
    </g>
</svg>